<?xml version="1.0" encoding="UTF-8"?>
<!DOCTYPE svg PUBLIC "-//W3C//DTD SVG 1.1//EN" "http://www.w3.org/Graphics/SVG/1.1/DTD/svg11.dtd">
<svg xmlns="http://www.w3.org/2000/svg" version="1.1" width="190px" height="40px" style="shape-rendering:geometricPrecision; text-rendering:geometricPrecision; image-rendering:optimizeQuality; fill-rule:evenodd; clip-rule:evenodd" xmlns:xlink="http://www.w3.org/1999/xlink">
<g><path style="opacity:1" fill="#0b0a0b" d="M -0.5,3.5 C 62.8333,3.5 126.167,3.5 189.5,3.5C 189.5,14.1667 189.5,24.8333 189.5,35.5C 126.167,35.5 62.8333,35.5 -0.5,35.5C -0.5,24.8333 -0.5,14.1667 -0.5,3.5 Z"/></g>
<g><path style="opacity:1" fill="#676767" d="M 181.5,7.5 C 183.693,6.20308 186.027,6.20308 188.5,7.5C 188.376,8.10667 188.043,8.44001 187.5,8.5C 185.735,7.53862 183.735,7.20528 181.5,7.5 Z"/></g>
<g><path style="opacity:1" fill="#d4cce2" d="M 15.5,5.5 C 20.2973,5.12114 24.964,5.62114 29.5,7C 32.3208,9.14128 33.6541,11.9746 33.5,15.5C 32.596,16.209 32.2627,17.209 32.5,18.5C 31.8333,19.1667 31.1667,19.8333 30.5,20.5C 28.8235,19.8166 28.1568,18.4832 28.5,16.5C 29.5749,12.062 27.9083,10.062 23.5,10.5C 23.719,9.32496 23.3857,8.32496 22.5,7.5C 20.0177,6.93294 17.6843,6.26627 15.5,5.5 Z"/></g>
<g><path style="opacity:1" fill="#f1f1f1" d="M 43.5,7.5 C 48.5111,7.33407 53.5111,7.50074 58.5,8C 63.1152,9.07698 64.6152,11.9103 63,16.5C 61.786,18.0488 60.286,19.2155 58.5,20C 61.407,23.1508 64.0736,26.4841 66.5,30C 64.1667,30.6667 61.8333,30.6667 59.5,30C 57.4023,27.146 55.069,24.4794 52.5,22C 51.552,21.5172 50.552,21.3505 49.5,21.5C 49.5,24.5 49.5,27.5 49.5,30.5C 47.5,30.5 45.5,30.5 43.5,30.5C 43.5,22.8333 43.5,15.1667 43.5,7.5 Z"/></g>
<g><path style="opacity:1" fill="#f6f6f6" d="M 76.5,11.5 C 75.5386,13.2646 75.2053,15.2646 75.5,17.5C 78.5,17.5 81.5,17.5 84.5,17.5C 84.5,18.5 84.5,19.5 84.5,20.5C 81.5,20.5 78.5,20.5 75.5,20.5C 75.5,22.5 75.5,24.5 75.5,26.5C 79.1667,26.5 82.8333,26.5 86.5,26.5C 86.5,27.8333 86.5,29.1667 86.5,30.5C 80.8333,30.5 75.1667,30.5 69.5,30.5C 69.5,22.8333 69.5,15.1667 69.5,7.5C 75.1667,7.5 80.8333,7.5 86.5,7.5C 86.5,8.83333 86.5,10.1667 86.5,11.5C 83.1667,11.5 79.8333,11.5 76.5,11.5 Z"/></g>
<g><path style="opacity:1" fill="#ebebeb" d="M 99.5,6.5 C 103.182,6.3347 106.848,6.50137 110.5,7C 111.406,8.69946 111.739,10.5328 111.5,12.5C 106.803,10.8414 102.303,11.1747 98,13.5C 95.4135,18.4129 96.2468,22.5796 100.5,26C 104.188,26.4501 107.854,26.2834 111.5,25.5C 111.714,27.1439 111.38,28.6439 110.5,30C 105.833,30.6667 101.167,30.6667 96.5,30C 90.0919,26.6772 87.9252,21.5105 90,14.5C 92.3616,10.7553 95.5283,8.08861 99.5,6.5 Z"/></g>
<g><path style="opacity:1" fill="#e6e6e6" d="M 120.5,6.5 C 124.182,6.3347 127.848,6.50137 131.5,7C 133.56,8.49258 133.893,10.3259 132.5,12.5C 129.227,11.4149 125.894,11.2483 122.5,12C 122.043,12.414 121.709,12.914 121.5,13.5C 125.692,16.0717 129.859,18.7384 134,21.5C 135.165,25.6836 133.665,28.5169 129.5,30C 124.581,30.8015 119.748,30.6349 115,29.5C 114.202,27.7412 114.369,26.0745 115.5,24.5C 118.889,26.4895 122.556,26.9895 126.5,26C 127.727,24.4126 127.394,23.0793 125.5,22C 120.901,21.4577 117.401,19.291 115,15.5C 114.333,14.1667 114.333,12.8333 115,11.5C 116.73,9.59809 118.563,7.93142 120.5,6.5 Z"/></g>
<g><path style="opacity:1" fill="#f0f0f0" d="M 145.5,7.5 C 148.572,7.18259 151.572,7.51592 154.5,8.5C 157.695,15.4179 160.695,22.4179 163.5,29.5C 161.257,30.4742 158.924,30.8076 156.5,30.5C 156.32,26.5878 154.153,24.9211 150,25.5C 145.847,24.9211 143.68,26.5878 143.5,30.5C 141.167,30.5 138.833,30.5 136.5,30.5C 139.216,22.7323 142.216,15.0656 145.5,7.5 Z"/></g>
<g><path style="opacity:1" fill="#f2f1f2" d="M 181.5,7.5 C 183.735,7.20528 185.735,7.53862 187.5,8.5C 185.012,12.8059 182.512,17.1392 180,21.5C 179.502,24.4816 179.335,27.4816 179.5,30.5C 177.5,30.5 175.5,30.5 173.5,30.5C 173.665,27.4816 173.498,24.4816 173,21.5C 170.042,17.0843 167.208,12.5843 164.5,8C 167.227,7.1816 169.894,7.34827 172.5,8.5C 173.747,11.3286 175.247,13.9952 177,16.5C 178.513,13.4734 180.013,10.4734 181.5,7.5 Z"/></g>
<g><path style="opacity:1" fill="#b392e3" d="M 15.5,5.5 C 17.6843,6.26627 20.0177,6.93294 22.5,7.5C 23.3857,8.32496 23.719,9.32496 23.5,10.5C 21.1667,10.5 18.8333,10.5 16.5,10.5C 14.9699,8.15252 12.9699,7.98585 10.5,10C 5.75797,12.8883 3.42464,17.0549 3.5,22.5C 1.81709,13.1392 5.81709,7.47256 15.5,5.5 Z"/></g>
<g><path style="opacity:1" fill="#0c090f" d="M 16.5,10.5 C 18.8333,10.5 21.1667,10.5 23.5,10.5C 27.9083,10.062 29.5749,12.062 28.5,16.5C 26.283,17.3686 23.9496,17.702 21.5,17.5C 18.031,16.3 14.6977,16.3 11.5,17.5C 10.8333,17.8333 10.1667,18.1667 9.5,18.5C 8.27187,19.3065 7.27187,20.3065 6.5,21.5C 6.98248,15.3466 10.3158,11.6799 16.5,10.5 Z"/></g>
<g><path style="opacity:1" fill="#0d0c0d" d="M 49.5,11.5 C 51.5273,11.3379 53.5273,11.5045 55.5,12C 56.9909,14.0217 56.6576,15.6883 54.5,17C 52.8659,17.4935 51.1992,17.6602 49.5,17.5C 49.5,15.5 49.5,13.5 49.5,11.5 Z"/></g>
<g><path style="opacity:1" fill="#222122" d="M 149.5,12.5 C 151.006,14.975 152.339,17.6416 153.5,20.5C 151.257,21.4742 148.924,21.8076 146.5,21.5C 147.216,18.4018 148.216,15.4018 149.5,12.5 Z"/></g>
<g><path style="opacity:1" fill="#9241ea" d="M 16.5,10.5 C 10.3158,11.6799 6.98248,15.3466 6.5,21.5C 6.16667,22.8333 5.83333,24.1667 5.5,25.5C 4.09368,25.0269 3.42702,24.0269 3.5,22.5C 3.42464,17.0549 5.75797,12.8883 10.5,10C 12.9699,7.98585 14.9699,8.15252 16.5,10.5 Z"/></g>
<g><path style="opacity:1" fill="#b5b4b5" d="M 76.5,11.5 C 76.5,13.1667 76.5,14.8333 76.5,16.5C 79.5,16.5 82.5,16.5 85.5,16.5C 85.5,17.8333 85.5,19.1667 85.5,20.5C 85.1667,20.5 84.8333,20.5 84.5,20.5C 84.5,19.5 84.5,18.5 84.5,17.5C 81.5,17.5 78.5,17.5 75.5,17.5C 75.2053,15.2646 75.5386,13.2646 76.5,11.5 Z"/></g>
<g><path style="opacity:1" fill="#a067e7" d="M 11.5,17.5 C 14.6977,16.3 18.031,16.3 21.5,17.5C 23.2501,19.0586 24.2501,21.0586 24.5,23.5C 22.0799,23.7076 19.7466,23.3742 17.5,22.5C 16.4376,23.4246 16.4376,24.4246 17.5,25.5C 15.8333,25.5 14.1667,25.5 12.5,25.5C 12.1667,24.8333 11.8333,24.1667 11.5,23.5C 14.0186,21.3591 14.0186,19.3591 11.5,17.5 Z"/></g>
<g><path style="opacity:1" fill="#9545ed" d="M 33.5,15.5 C 34.6737,16.5137 35.3404,17.847 35.5,19.5C 34.9339,23.7967 32.9339,27.2967 29.5,30C 27.9343,30.765 26.6009,30.5983 25.5,29.5C 30.6037,27.6311 32.9371,23.9645 32.5,18.5C 32.2627,17.209 32.596,16.209 33.5,15.5 Z"/></g>
<g><path style="opacity:1" fill="#bb98f0" d="M 11.5,17.5 C 14.0186,19.3591 14.0186,21.3591 11.5,23.5C 11.1667,23.5 10.8333,23.5 10.5,23.5C 10.634,21.7085 10.3007,20.0418 9.5,18.5C 10.1667,18.1667 10.8333,17.8333 11.5,17.5 Z"/></g>
<g><path style="opacity:1" fill="#af94d9" d="M 28.5,16.5 C 28.1568,18.4832 28.8235,19.8166 30.5,20.5C 29.089,22.539 27.089,23.539 24.5,23.5C 24.2501,21.0586 23.2501,19.0586 21.5,17.5C 23.9496,17.702 26.283,17.3686 28.5,16.5 Z"/></g>
<g><path style="opacity:1" fill="#646365" d="M 84.5,20.5 C 84.8333,20.5 85.1667,20.5 85.5,20.5C 82.7131,21.4767 79.7131,21.81 76.5,21.5C 76.5,22.8333 76.5,24.1667 76.5,25.5C 80.0419,25.1872 83.3752,25.5206 86.5,26.5C 82.8333,26.5 79.1667,26.5 75.5,26.5C 75.5,24.5 75.5,22.5 75.5,20.5C 78.5,20.5 81.5,20.5 84.5,20.5 Z"/></g>
<g><path style="opacity:1" fill="#c9bedb" d="M 9.5,18.5 C 10.3007,20.0418 10.634,21.7085 10.5,23.5C 8.89981,27.8089 10.2331,30.9756 14.5,33C 8.51295,34.246 5.51295,31.746 5.5,25.5C 5.83333,24.1667 6.16667,22.8333 6.5,21.5C 7.27187,20.3065 8.27187,19.3065 9.5,18.5 Z"/></g>
<g><path style="opacity:1" fill="#0e0a11" d="M 32.5,18.5 C 32.9371,23.9645 30.6037,27.6311 25.5,29.5C 21.693,30.2259 19.0263,28.8926 17.5,25.5C 16.4376,24.4246 16.4376,23.4246 17.5,22.5C 19.7466,23.3742 22.0799,23.7076 24.5,23.5C 27.089,23.539 29.089,22.539 30.5,20.5C 31.1667,19.8333 31.8333,19.1667 32.5,18.5 Z"/></g>
<g><path style="opacity:1" fill="#b89be4" d="M 35.5,19.5 C 36.6225,21.2884 36.7891,23.2884 36,25.5C 34.5,27.6667 33,29.8333 31.5,32C 30.255,32.7914 28.9217,33.2914 27.5,33.5C 23.3608,32.7934 19.3608,31.4601 15.5,29.5C 14.5116,28.205 13.5116,26.8717 12.5,25.5C 14.1667,25.5 15.8333,25.5 17.5,25.5C 19.0263,28.8926 21.693,30.2259 25.5,29.5C 26.6009,30.5983 27.9343,30.765 29.5,30C 32.9339,27.2967 34.9339,23.7967 35.5,19.5 Z"/></g>
<g><path style="opacity:1" fill="#d7ccea" d="M 15.5,29.5 C 19.3608,31.4601 23.3608,32.7934 27.5,33.5C 22.2667,35.7112 18.2667,34.3779 15.5,29.5 Z"/></g>
</svg>
