<?xml version="1.0" encoding="UTF-8"?>
<svg version="1.1" xmlns="http://www.w3.org/2000/svg" width="147" height="25">
<path d="M0 0 C48.51 0 97.02 0 147 0 C147 8.25 147 16.5 147 25 C98.49 25 49.98 25 0 25 C0 16.75 0 8.5 0 0 Z " fill="#090909" transform="translate(0,0)"/>
<path d="M0 0 C1.25554688 -0.03738281 2.51109375 -0.07476562 3.8046875 -0.11328125 C7.125 0.3125 7.125 0.3125 8.99609375 2.1875 C11.58535194 7.06139777 12.7268195 10.69551801 12.125 16.3125 C10.32937595 19.06579021 9.07245078 20.83877461 6.125 22.3125 C2.8125 22.75 2.8125 22.75 -0.875 22.3125 C-3.11382525 20.50250447 -4.25519991 18.76674256 -5.875 16.3125 C-5.875 15.6525 -5.875 14.9925 -5.875 14.3125 C-6.535 14.3125 -7.195 14.3125 -7.875 14.3125 C-7.215 16.6225 -6.555 18.9325 -5.875 21.3125 C-7.625 21.25 -7.625 21.25 -9.875 20.3125 C-12.74327827 16.43644829 -13.85412514 14.52324217 -13.9375 9.6875 C-12.6861711 5.71269057 -11.0186567 3.9846082 -7.875 1.3125 C-5.93759347 -0.62490653 -2.57340128 0.0499945 0 0 Z " fill="#9E6CDE" transform="translate(15.875,1.6875)"/>
<path d="M0 0 C11.625 -0.25 11.625 -0.25 15 2 C15.1875 5.125 15.1875 5.125 15 8 C14.01 8.33 13.02 8.66 12 9 C13.98 11.97 15.96 14.94 18 18 C15.3125 18.375 15.3125 18.375 12 18 C9.98874721 16.184967 8.61878896 14.20335164 7 12 C6.34 11.67 5.68 11.34 5 11 C5 13.31 5 15.62 5 18 C3.35 18 1.7 18 0 18 C0 12.06 0 6.12 0 0 Z " fill="#F3F3F3" transform="translate(34,3)"/>
<path d="M0 0 C2.31 0 4.62 0 7 0 C8.17112946 2.62309099 9.33705964 5.24828142 10.5 7.875 C10.83386719 8.62136719 11.16773437 9.36773437 11.51171875 10.13671875 C11.82753906 10.85214844 12.14335938 11.56757813 12.46875 12.3046875 C12.90864258 13.2944458 12.90864258 13.2944458 13.35742188 14.30419922 C14 16 14 16 14 18 C11.625 18.1875 11.625 18.1875 9 18 C8.34 17.01 7.68 16.02 7 15 C5.03638136 14.42251197 5.03638136 14.42251197 2.875 14.3125 C0.956875 14.1578125 0.956875 14.1578125 -1 14 C-1.33 15.32 -1.66 16.64 -2 18 C-3.65 18 -5.3 18 -7 18 C-5.06375702 11.79522136 -2.74390859 5.89174281 0 0 Z " fill="#F3F3F3" transform="translate(113,3)"/>
<path d="M0 0 C7.26 0 14.52 0 22 0 C22 0.66 22 1.32 22 2 C20.67935547 2.02126953 20.67935547 2.02126953 19.33203125 2.04296875 C12.1503016 2.2386588 12.1503016 2.2386588 5.75 5.125 C3.58781813 8.67715593 2.92804821 10.82679597 3 15 C4.09373217 17.59761391 5.41170481 19.6416223 7 22 C8.29633621 20.93354885 8.29633621 20.93354885 8.0625 18.4375 C8.041875 17.633125 8.02125 16.82875 8 16 C8.66 16 9.32 16 10 16 C10.77449242 17.13708251 11.49604136 18.31059675 12.1875 19.5 C13.43653125 21.45373998 13.43653125 21.45373998 15 23 C18.89482988 23.53721791 21.29068515 23.23643828 25 22 C24.67 22.99 24.34 23.98 24 25 C16.08 25 8.16 25 0 25 C0 16.75 0 8.5 0 0 Z " fill="#0A090C" transform="translate(0,0)"/>
<path d="M0 0 C1.82917969 -0.01546875 1.82917969 -0.01546875 3.6953125 -0.03125 C6.875 0.5 6.875 0.5 8.73046875 2.38671875 C11.35831825 7.23882312 12.47591496 10.8914604 11.875 16.5 C10.07937595 19.25329021 8.82245078 21.02627461 5.875 22.5 C2.5 22.875 2.5 22.875 -1.125 22.5 C-3.5625 20.125 -3.5625 20.125 -5.125 17.5 C-5.125 16.84 -5.125 16.18 -5.125 15.5 C-1.25 16.375 -1.25 16.375 -0.125 17.5 C2.21444736 17.21269945 4.5489143 16.88063221 6.875 16.5 C7.535 14.85 8.195 13.2 8.875 11.5 C6.895 12.49 6.895 12.49 4.875 13.5 C5.16796875 11.44921875 5.4609375 9.3984375 5.75390625 7.34765625 C5.79386719 6.73792969 5.83382813 6.12820312 5.875 5.5 C3.69078666 3.31578666 -0.45468212 3.68067896 -3.38671875 3.4296875 C-6.32503498 3.28270403 -6.32503498 3.28270403 -9.1875 5.3125 C-10.1465625 6.3953125 -10.1465625 6.3953125 -11.125 7.5 C-11.785 8.16 -12.445 8.82 -13.125 9.5 C-12.84753408 6.17040895 -12.39534848 4.77486265 -10.01953125 2.359375 C-6.44045383 0.06026454 -4.22524887 -0.03588322 0 0 Z " fill="#D7CCEC" transform="translate(16.125,1.5)"/>
<path d="M0 0 C0.99773437 0.02320313 1.99546875 0.04640625 3.0234375 0.0703125 C4.52777344 0.09738281 4.52777344 0.09738281 6.0625 0.125 C6.83335938 0.14820313 7.60421875 0.17140625 8.3984375 0.1953125 C8.3984375 1.1853125 8.3984375 2.1753125 8.3984375 3.1953125 C5.7584375 3.1953125 3.1184375 3.1953125 0.3984375 3.1953125 C1.06814261 6.25931116 1.06814261 6.25931116 3.24609375 7.36328125 C3.97699219 7.69972656 4.70789063 8.03617188 5.4609375 8.3828125 C6.19441406 8.72699219 6.92789063 9.07117187 7.68359375 9.42578125 C8.24949219 9.67972656 8.81539062 9.93367187 9.3984375 10.1953125 C9.5859375 13.0703125 9.5859375 13.0703125 9.3984375 16.1953125 C5.87164651 18.54650649 4.36964265 18.40974702 0.2109375 18.3203125 C-0.87574219 18.30226563 -1.96242188 18.28421875 -3.08203125 18.265625 C-4.32919922 18.23082031 -4.32919922 18.23082031 -5.6015625 18.1953125 C-5.6015625 16.8753125 -5.6015625 15.5553125 -5.6015625 14.1953125 C-2.6315625 14.1953125 0.3384375 14.1953125 3.3984375 14.1953125 C3.7284375 13.5353125 4.0584375 12.8753125 4.3984375 12.1953125 C3.3053125 11.9271875 2.2121875 11.6590625 1.0859375 11.3828125 C-4.11203574 9.70888892 -4.11203574 9.70888892 -5.6015625 7.1953125 C-5.29602622 3.01965007 -4.57411699 0.34340218 0 0 Z " fill="#EDEDED" transform="translate(94.6015625,2.8046875)"/>
<path d="M0 0 C4.29 0 8.58 0 13 0 C13 0.99 13 1.98 13 3 C10.36 3 7.72 3 5 3 C5 4.32 5 5.64 5 7 C7.31 7 9.62 7 12 7 C12 8.32 12 9.64 12 11 C9.69 11 7.38 11 5 11 C5 12.32 5 13.64 5 15 C7.64 15 10.28 15 13 15 C13 15.99 13 16.98 13 18 C8.71 18 4.42 18 0 18 C0 12.06 0 6.12 0 0 Z " fill="#F1F1F1" transform="translate(54,3)"/>
<path d="M0 0 C0 1.32 0 2.64 0 4 C-0.62648438 3.97679687 -1.25296875 3.95359375 -1.8984375 3.9296875 C-2.71570313 3.91164063 -3.53296875 3.89359375 -4.375 3.875 C-5.59316406 3.84019531 -5.59316406 3.84019531 -6.8359375 3.8046875 C-9.21342243 3.78629949 -9.21342243 3.78629949 -11 6 C-11.33333333 9 -11.33333333 9 -11 12 C-9.21342243 14.21370051 -9.21342243 14.21370051 -6.8359375 14.1953125 C-6.02382812 14.17210937 -5.21171875 14.14890625 -4.375 14.125 C-3.55773437 14.10695313 -2.74046875 14.08890625 -1.8984375 14.0703125 C-1.27195312 14.04710937 -0.64546875 14.02390625 0 14 C0 15.32 0 16.64 0 18 C-10.62124839 18.60983244 -10.62124839 18.60983244 -15.25 16.5625 C-17.46940706 13.31265395 -17.73023925 11.08095198 -17.4609375 7.1953125 C-17 5 -17 5 -15.25 1.9375 C-10.3294916 -0.99588 -5.59089386 -0.40126033 0 0 Z " fill="#EDEDED" transform="translate(87,3)"/>
<path d="M0 0 C2.3125 -0.3125 2.3125 -0.3125 5 0 C6.81883009 2.3832946 8 3.95818337 8 7 C8.66 7 9.32 7 10 7 C10.309375 6.030625 10.61875 5.06125 10.9375 4.0625 C12 1 12 1 13 0 C14.66617115 -0.04063832 16.33388095 -0.042721 18 0 C17.18993474 1.64703306 16.3768779 3.29259506 15.5625 4.9375 C15.11003906 5.85402344 14.65757812 6.77054688 14.19140625 7.71484375 C13 10 13 10 12 11 C11.63239269 13.32817964 11.29758419 15.6618385 11 18 C9.35 18 7.7 18 6 18 C5.9071875 16.2675 5.9071875 16.2675 5.8125 14.5 C5.29722409 10.11234754 3.5701854 7.23578773 1.05859375 3.6640625 C0 2 0 2 0 0 Z " fill="#F2F2F1" transform="translate(128,3)"/>
<path d="M0 0 C2 2 2 2 2.375 5.3125 C1.94452982 9.54545677 0.96639625 11.03360375 -2 14 C-5.12860495 15.56430248 -7.55602925 15.35627284 -11 15 C-13.4375 12.625 -13.4375 12.625 -15 10 C-15 9.34 -15 8.68 -15 8 C-11.125 8.875 -11.125 8.875 -10 10 C-6.51944126 9.82432642 -6.51944126 9.82432642 -3 9 C-0.87491756 5.81237635 -0.4979837 3.73487777 0 0 Z " fill="#C5B1E8" transform="translate(26,9)"/>
<path d="M0 0 C1.61648437 0.04060547 1.61648437 0.04060547 3.265625 0.08203125 C4.08546875 0.11683594 4.9053125 0.15164062 5.75 0.1875 C6.3125 2.125 6.3125 2.125 6.75 4.1875 C6.42 4.5175 6.09 4.8475 5.75 5.1875 C2.7712215 5.17836264 -0.19582191 5.05430056 -3.171875 4.9296875 C-6.63652538 5.21987395 -8.44080801 6.20025678 -11.25 8.1875 C-10.93466796 5.27067863 -10.70209742 3.63959742 -8.59375 1.53125 C-5.55982472 -0.20820049 -3.47266891 -0.1132392 0 0 Z " fill="#09060C" transform="translate(16.25,5.8125)"/>
<path d="M0 0 C0.66 0 1.32 0 2 0 C2.77449242 1.13708251 3.49604136 2.31059675 4.1875 3.5 C5.43653125 5.45373998 5.43653125 5.45373998 7 7 C10.89482988 7.53721791 13.29068515 7.23643828 17 6 C16.67 6.99 16.34 7.98 16 9 C9.4 9 2.8 9 -4 9 C-4 8.01 -4 7.02 -4 6 C-3.01 6 -2.02 6 -1 6 C0.29633621 4.93354885 0.29633621 4.93354885 0.0625 2.4375 C0.041875 1.633125 0.02125 0.82875 0 0 Z " fill="#1B181E" transform="translate(8,16)"/>
<path d="M0 0 C0.33 0.99 0.66 1.98 1 3 C-3.21052632 7.81203008 -3.21052632 7.81203008 -6.625 8.625 C-9 8 -9 8 -10.8125 5.5 C-11.204375 4.675 -11.59625 3.85 -12 3 C-10.95199219 2.92652344 -10.95199219 2.92652344 -9.8828125 2.8515625 C-8.97273438 2.77679688 -8.06265625 2.70203125 -7.125 2.625 C-6.22007813 2.55539062 -5.31515625 2.48578125 -4.3828125 2.4140625 C-1.82058097 2.20431868 -1.82058097 2.20431868 0 0 Z " fill="#120B19" transform="translate(25,12)"/>
<path d="M0 0 C0 0.33 0 0.66 0 1 C-0.74765625 1.02578125 -1.4953125 1.0515625 -2.265625 1.078125 C-8.23768795 1.3374332 -8.23768795 1.3374332 -13.625 3.625 C-15.41538046 6.71747534 -15.72813265 9.46572444 -16 13 C-18.20368132 11.25541895 -18.94528452 10.43701326 -19.30078125 7.59765625 C-19 5 -19 5 -17.63671875 3.1640625 C-11.6944175 -1.52785472 -7.288581 -1.47379395 0 0 Z " fill="#864BC8" transform="translate(21,5)"/>
<path d="M0 0 C0 0.66 0 1.32 0 2 C-1.5778125 1.87625 -1.5778125 1.87625 -3.1875 1.75 C-8.46160328 2.09584284 -10.40862873 4.40862873 -14 8 C-13.7216584 4.65990077 -13.16222432 3.18680376 -10.9375 0.625 C-6.81197942 -1.65720288 -4.5566584 -0.92677798 0 0 Z " fill="#B18EE5" transform="translate(17,3)"/>
<path d="M0 0 C0.66 0.33 1.32 0.66 2 1 C1.75 4.375 1.75 4.375 1 8 C-1.0625 9.4375 -1.0625 9.4375 -3 10 C-2.39009109 6.44219804 -1.4216319 3.3171411 0 0 Z " fill="#D1C5E7" transform="translate(24,5)"/>
<path d="M0 0 C0.66 0.66 1.32 1.32 2 2 C1.84809587 5.49379495 1.34677751 7.51194277 -0.6875 10.375 C-3.62449613 12.43883512 -5.48612204 12.31944345 -9 12 C-8.4225 11.7525 -7.845 11.505 -7.25 11.25 C-4.58421598 9.76900888 -2.91797067 8.38092911 -1 6 C-0.19684346 2.85518209 -0.19684346 2.85518209 0 0 Z " fill="#8D45DB" transform="translate(26,9)"/>
<path d="M0 0 C0.66 0 1.32 0 2 0 C2.144375 1.11375 2.28875 2.2275 2.4375 3.375 C2.78372035 6.82142047 2.78372035 6.82142047 4 9 C0.125 8.125 0.125 8.125 -1 7 C-1.125 4 -1.125 4 -1 1 C-0.67 0.67 -0.34 0.34 0 0 Z " fill="#D7CEE8" transform="translate(6,14)"/>
<path d="M0 0 C2.35953094 2.35953094 2.49141413 3.77895617 3 7 C1.35 7 -0.3 7 -2 7 C-1.125 1.125 -1.125 1.125 0 0 Z " fill="#242424" transform="translate(116,7)"/>
<path d="M0 0 C2.475 0.495 2.475 0.495 5 1 C4.67 2.32 4.34 3.64 4 5 C2.68 5 1.36 5 0 5 C0 3.35 0 1.7 0 0 Z " fill="#040404" transform="translate(39,6)"/>
<path d="M0 0 C0.78375 0.04125 1.5675 0.0825 2.375 0.125 C2.375 1.115 2.375 2.105 2.375 3.125 C0 3.75 0 3.75 -2.625 4.125 C-3.285 3.465 -3.945 2.805 -4.625 2.125 C-2.625 0.125 -2.625 0.125 0 0 Z " fill="#B792EC" transform="translate(10.625,10.875)"/>
<path d="M0 0 C0.33 0.99 0.66 1.98 1 3 C-1.1875 5.5625 -1.1875 5.5625 -4 8 C-6.8125 7.8125 -6.8125 7.8125 -9 7 C-9 6.67 -9 6.34 -9 6 C-8.071875 5.7525 -7.14375 5.505 -6.1875 5.25 C-2.83541675 3.93545755 -1.8122197 3.02036616 0 0 Z " fill="#B58EEC" transform="translate(27,15)"/>
</svg>
